<svg width="489" height="149" viewBox="0 0 489 149" fill="none" xmlns="http://www.w3.org/2000/svg">
<path d="M179.443 107.226V110.346H166.589V107.226H179.443ZM170.94 101.447H175.005V125.111C175.005 125.917 175.129 126.525 175.378 126.935C175.627 127.345 175.95 127.616 176.345 127.748C176.741 127.88 177.166 127.946 177.62 127.946C177.957 127.946 178.308 127.917 178.674 127.858C179.055 127.785 179.341 127.726 179.531 127.682L179.553 131C179.231 131.103 178.806 131.198 178.279 131.286C177.766 131.388 177.144 131.439 176.411 131.439C175.415 131.439 174.5 131.242 173.665 130.846C172.83 130.451 172.163 129.792 171.665 128.869C171.182 127.931 170.94 126.671 170.94 125.089V101.447ZM194.077 131.439C192.422 131.439 190.92 131.161 189.573 130.604C188.24 130.033 187.09 129.235 186.123 128.209C185.171 127.184 184.438 125.968 183.926 124.562C183.413 123.156 183.157 121.618 183.157 119.948V119.025C183.157 117.091 183.442 115.37 184.014 113.861C184.585 112.338 185.361 111.049 186.343 109.994C187.324 108.939 188.438 108.141 189.683 107.599C190.928 107.057 192.217 106.786 193.55 106.786C195.249 106.786 196.714 107.079 197.944 107.665C199.189 108.251 200.208 109.071 200.999 110.126C201.79 111.166 202.375 112.396 202.756 113.817C203.137 115.224 203.328 116.762 203.328 118.432V120.255H185.574V116.938H199.263V116.63C199.204 115.575 198.984 114.55 198.604 113.554C198.237 112.558 197.651 111.737 196.846 111.093C196.04 110.448 194.941 110.126 193.55 110.126C192.627 110.126 191.777 110.324 191.001 110.719C190.225 111.1 189.558 111.671 189.001 112.433C188.445 113.195 188.013 114.125 187.705 115.224C187.397 116.322 187.244 117.589 187.244 119.025V119.948C187.244 121.076 187.397 122.138 187.705 123.134C188.027 124.115 188.489 124.979 189.089 125.727C189.705 126.474 190.444 127.06 191.309 127.484C192.188 127.909 193.184 128.122 194.297 128.122C195.732 128.122 196.948 127.829 197.944 127.243C198.94 126.657 199.812 125.873 200.559 124.892L203.02 126.847C202.507 127.624 201.855 128.363 201.064 129.066C200.273 129.77 199.299 130.341 198.142 130.78C197 131.22 195.645 131.439 194.077 131.439ZM222.092 126.935V114.696C222.092 113.759 221.902 112.946 221.521 112.257C221.155 111.554 220.598 111.012 219.851 110.631C219.104 110.25 218.181 110.06 217.083 110.06C216.057 110.06 215.156 110.236 214.38 110.587C213.618 110.939 213.018 111.4 212.578 111.972C212.153 112.543 211.941 113.158 211.941 113.817H207.876C207.876 112.968 208.096 112.125 208.535 111.291C208.975 110.456 209.604 109.701 210.425 109.027C211.26 108.339 212.256 107.797 213.413 107.401C214.585 106.991 215.889 106.786 217.324 106.786C219.053 106.786 220.576 107.079 221.895 107.665C223.228 108.251 224.268 109.137 225.015 110.324C225.776 111.496 226.157 112.968 226.157 114.74V125.814C226.157 126.605 226.223 127.448 226.355 128.341C226.501 129.235 226.714 130.004 226.992 130.648V131H222.751C222.546 130.531 222.385 129.909 222.268 129.132C222.151 128.341 222.092 127.609 222.092 126.935ZM222.795 116.586L222.839 119.442H218.73C217.573 119.442 216.541 119.538 215.632 119.728C214.724 119.904 213.962 120.175 213.347 120.541C212.732 120.907 212.263 121.369 211.941 121.925C211.619 122.467 211.458 123.104 211.458 123.837C211.458 124.584 211.626 125.265 211.963 125.88C212.3 126.496 212.805 126.986 213.479 127.353C214.167 127.704 215.01 127.88 216.006 127.88C217.251 127.88 218.35 127.616 219.302 127.089C220.254 126.562 221.008 125.917 221.565 125.155C222.136 124.394 222.444 123.654 222.488 122.936L224.224 124.892C224.121 125.507 223.843 126.188 223.389 126.935C222.935 127.682 222.327 128.4 221.565 129.088C220.818 129.762 219.924 130.326 218.884 130.78C217.859 131.22 216.702 131.439 215.413 131.439C213.801 131.439 212.388 131.125 211.172 130.495C209.971 129.865 209.033 129.022 208.359 127.968C207.7 126.898 207.371 125.705 207.371 124.386C207.371 123.112 207.62 121.991 208.118 121.024C208.616 120.043 209.333 119.23 210.271 118.585C211.208 117.926 212.336 117.428 213.655 117.091C214.973 116.754 216.445 116.586 218.071 116.586H222.795ZM236.594 111.95V131H232.507V107.226H236.375L236.594 111.95ZM235.759 118.212L233.87 118.146C233.884 116.52 234.097 115.019 234.507 113.642C234.917 112.25 235.525 111.042 236.331 110.016C237.136 108.991 238.14 108.2 239.341 107.643C240.542 107.072 241.934 106.786 243.516 106.786C244.629 106.786 245.654 106.947 246.592 107.27C247.529 107.577 248.342 108.068 249.031 108.742C249.719 109.416 250.254 110.28 250.635 111.334C251.016 112.389 251.206 113.664 251.206 115.158V131H247.141V115.355C247.141 114.11 246.929 113.114 246.504 112.367C246.094 111.62 245.508 111.078 244.746 110.741C243.984 110.39 243.091 110.214 242.065 110.214C240.864 110.214 239.861 110.426 239.055 110.851C238.25 111.276 237.605 111.862 237.122 112.609C236.638 113.356 236.287 114.213 236.067 115.18C235.862 116.132 235.759 117.143 235.759 118.212ZM251.162 115.971L248.438 116.806C248.452 115.502 248.665 114.25 249.075 113.048C249.5 111.847 250.107 110.778 250.898 109.84C251.704 108.903 252.693 108.163 253.865 107.621C255.037 107.064 256.377 106.786 257.886 106.786C259.16 106.786 260.288 106.955 261.27 107.292C262.266 107.628 263.101 108.148 263.774 108.852C264.463 109.54 264.983 110.426 265.334 111.51C265.686 112.594 265.862 113.883 265.862 115.377V131H261.775V115.333C261.775 114 261.562 112.968 261.138 112.235C260.728 111.488 260.142 110.968 259.38 110.675C258.633 110.368 257.739 110.214 256.699 110.214C255.806 110.214 255.015 110.368 254.326 110.675C253.638 110.983 253.059 111.408 252.59 111.95C252.122 112.477 251.763 113.085 251.514 113.773C251.279 114.462 251.162 115.194 251.162 115.971ZM292.69 128.1C293.657 128.1 294.551 127.902 295.371 127.506C296.191 127.111 296.865 126.569 297.393 125.88C297.92 125.177 298.22 124.379 298.293 123.485H302.161C302.087 124.892 301.611 126.203 300.732 127.418C299.868 128.62 298.733 129.594 297.327 130.341C295.92 131.073 294.375 131.439 292.69 131.439C290.903 131.439 289.343 131.125 288.01 130.495C286.692 129.865 285.593 129 284.714 127.902C283.85 126.803 283.198 125.543 282.759 124.123C282.334 122.687 282.122 121.171 282.122 119.574V118.651C282.122 117.055 282.334 115.546 282.759 114.125C283.198 112.689 283.85 111.422 284.714 110.324C285.593 109.225 286.692 108.361 288.01 107.731C289.343 107.101 290.903 106.786 292.69 106.786C294.551 106.786 296.177 107.167 297.568 107.929C298.96 108.676 300.051 109.701 300.842 111.005C301.648 112.294 302.087 113.759 302.161 115.399H298.293C298.22 114.418 297.942 113.532 297.458 112.741C296.99 111.95 296.345 111.32 295.525 110.851C294.719 110.368 293.774 110.126 292.69 110.126C291.445 110.126 290.398 110.375 289.548 110.873C288.713 111.356 288.047 112.016 287.549 112.851C287.065 113.671 286.714 114.586 286.494 115.597C286.289 116.593 286.187 117.611 286.187 118.651V119.574C286.187 120.614 286.289 121.64 286.494 122.65C286.699 123.661 287.043 124.577 287.527 125.397C288.025 126.217 288.691 126.876 289.526 127.375C290.376 127.858 291.431 128.1 292.69 128.1ZM305.654 119.376V118.871C305.654 117.157 305.903 115.568 306.401 114.103C306.899 112.624 307.617 111.342 308.555 110.258C309.492 109.159 310.627 108.31 311.96 107.709C313.293 107.094 314.788 106.786 316.443 106.786C318.113 106.786 319.614 107.094 320.947 107.709C322.295 108.31 323.438 109.159 324.375 110.258C325.327 111.342 326.052 112.624 326.55 114.103C327.048 115.568 327.297 117.157 327.297 118.871V119.376C327.297 121.09 327.048 122.68 326.55 124.145C326.052 125.609 325.327 126.891 324.375 127.99C323.438 129.074 322.302 129.923 320.969 130.539C319.651 131.139 318.157 131.439 316.487 131.439C314.817 131.439 313.315 131.139 311.982 130.539C310.649 129.923 309.507 129.074 308.555 127.99C307.617 126.891 306.899 125.609 306.401 124.145C305.903 122.68 305.654 121.09 305.654 119.376ZM309.719 118.871V119.376C309.719 120.563 309.858 121.684 310.137 122.738C310.415 123.778 310.833 124.701 311.389 125.507C311.96 126.312 312.671 126.95 313.521 127.418C314.37 127.873 315.359 128.1 316.487 128.1C317.6 128.1 318.574 127.873 319.409 127.418C320.259 126.95 320.962 126.312 321.519 125.507C322.075 124.701 322.493 123.778 322.771 122.738C323.064 121.684 323.21 120.563 323.21 119.376V118.871C323.21 117.699 323.064 116.593 322.771 115.553C322.493 114.499 322.068 113.568 321.497 112.763C320.94 111.942 320.237 111.298 319.387 110.829C318.552 110.36 317.571 110.126 316.443 110.126C315.33 110.126 314.348 110.36 313.499 110.829C312.664 111.298 311.96 111.942 311.389 112.763C310.833 113.568 310.415 114.499 310.137 115.553C309.858 116.593 309.719 117.699 309.719 118.871ZM336.438 111.95V131H332.351V107.226H336.218L336.438 111.95ZM335.603 118.212L333.713 118.146C333.728 116.52 333.94 115.019 334.351 113.642C334.761 112.25 335.369 111.042 336.174 110.016C336.98 108.991 337.983 108.2 339.185 107.643C340.386 107.072 341.777 106.786 343.359 106.786C344.473 106.786 345.498 106.947 346.436 107.27C347.373 107.577 348.186 108.068 348.875 108.742C349.563 109.416 350.098 110.28 350.479 111.334C350.859 112.389 351.05 113.664 351.05 115.158V131H346.985V115.355C346.985 114.11 346.772 113.114 346.348 112.367C345.938 111.62 345.352 111.078 344.59 110.741C343.828 110.39 342.935 110.214 341.909 110.214C340.708 110.214 339.705 110.426 338.899 110.851C338.093 111.276 337.449 111.862 336.965 112.609C336.482 113.356 336.13 114.213 335.911 115.18C335.706 116.132 335.603 117.143 335.603 118.212ZM351.006 115.971L348.281 116.806C348.296 115.502 348.508 114.25 348.918 113.048C349.343 111.847 349.951 110.778 350.742 109.84C351.548 108.903 352.537 108.163 353.708 107.621C354.88 107.064 356.221 106.786 357.729 106.786C359.004 106.786 360.132 106.955 361.113 107.292C362.109 107.628 362.944 108.148 363.618 108.852C364.307 109.54 364.827 110.426 365.178 111.51C365.53 112.594 365.706 113.883 365.706 115.377V131H361.619V115.333C361.619 114 361.406 112.968 360.981 112.235C360.571 111.488 359.985 110.968 359.224 110.675C358.477 110.368 357.583 110.214 356.543 110.214C355.649 110.214 354.858 110.368 354.17 110.675C353.481 110.983 352.903 111.408 352.434 111.95C351.965 112.477 351.606 113.085 351.357 113.773C351.123 114.462 351.006 115.194 351.006 115.971ZM375.923 111.796V140.141H371.836V107.226H375.571L375.923 111.796ZM391.941 118.915V119.376C391.941 121.105 391.736 122.709 391.326 124.188C390.916 125.653 390.315 126.928 389.524 128.012C388.748 129.096 387.788 129.938 386.646 130.539C385.503 131.139 384.192 131.439 382.712 131.439C381.204 131.439 379.871 131.19 378.713 130.692C377.556 130.194 376.575 129.469 375.769 128.517C374.963 127.565 374.319 126.422 373.835 125.089C373.367 123.756 373.044 122.255 372.869 120.585V118.124C373.044 116.366 373.374 114.792 373.857 113.4C374.341 112.008 374.978 110.822 375.769 109.84C376.575 108.844 377.549 108.09 378.691 107.577C379.834 107.05 381.152 106.786 382.646 106.786C384.141 106.786 385.466 107.079 386.624 107.665C387.781 108.236 388.755 109.057 389.546 110.126C390.337 111.195 390.93 112.477 391.326 113.971C391.736 115.451 391.941 117.099 391.941 118.915ZM387.854 119.376V118.915C387.854 117.729 387.729 116.615 387.48 115.575C387.231 114.521 386.843 113.598 386.316 112.807C385.803 112.001 385.144 111.371 384.338 110.917C383.533 110.448 382.573 110.214 381.46 110.214C380.435 110.214 379.541 110.39 378.779 110.741C378.032 111.093 377.395 111.569 376.868 112.169C376.34 112.755 375.908 113.429 375.571 114.191C375.249 114.938 375.007 115.714 374.846 116.52V122.211C375.139 123.236 375.549 124.203 376.077 125.111C376.604 126.005 377.307 126.73 378.186 127.287C379.065 127.829 380.171 128.1 381.504 128.1C382.603 128.1 383.547 127.873 384.338 127.418C385.144 126.95 385.803 126.312 386.316 125.507C386.843 124.701 387.231 123.778 387.48 122.738C387.729 121.684 387.854 120.563 387.854 119.376ZM411.145 126.935V114.696C411.145 113.759 410.955 112.946 410.574 112.257C410.208 111.554 409.651 111.012 408.904 110.631C408.157 110.25 407.234 110.06 406.135 110.06C405.11 110.06 404.209 110.236 403.433 110.587C402.671 110.939 402.07 111.4 401.631 111.972C401.206 112.543 400.994 113.158 400.994 113.817H396.929C396.929 112.968 397.148 112.125 397.588 111.291C398.027 110.456 398.657 109.701 399.478 109.027C400.312 108.339 401.309 107.797 402.466 107.401C403.638 106.991 404.941 106.786 406.377 106.786C408.105 106.786 409.629 107.079 410.947 107.665C412.28 108.251 413.32 109.137 414.067 110.324C414.829 111.496 415.21 112.968 415.21 114.74V125.814C415.21 126.605 415.276 127.448 415.408 128.341C415.554 129.235 415.767 130.004 416.045 130.648V131H411.804C411.599 130.531 411.438 129.909 411.321 129.132C411.204 128.341 411.145 127.609 411.145 126.935ZM411.848 116.586L411.892 119.442H407.783C406.626 119.442 405.593 119.538 404.685 119.728C403.777 119.904 403.015 120.175 402.4 120.541C401.785 120.907 401.316 121.369 400.994 121.925C400.671 122.467 400.51 123.104 400.51 123.837C400.51 124.584 400.679 125.265 401.016 125.88C401.353 126.496 401.858 126.986 402.532 127.353C403.22 127.704 404.062 127.88 405.059 127.88C406.304 127.88 407.402 127.616 408.354 127.089C409.307 126.562 410.061 125.917 410.618 125.155C411.189 124.394 411.497 123.654 411.541 122.936L413.276 124.892C413.174 125.507 412.896 126.188 412.441 126.935C411.987 127.682 411.379 128.4 410.618 129.088C409.871 129.762 408.977 130.326 407.937 130.78C406.912 131.22 405.754 131.439 404.465 131.439C402.854 131.439 401.44 131.125 400.225 130.495C399.023 129.865 398.086 129.022 397.412 127.968C396.753 126.898 396.423 125.705 396.423 124.386C396.423 123.112 396.672 121.991 397.17 121.024C397.668 120.043 398.386 119.23 399.324 118.585C400.261 117.926 401.389 117.428 402.708 117.091C404.026 116.754 405.498 116.586 407.124 116.586H411.848ZM435.447 124.694C435.447 124.108 435.315 123.566 435.051 123.068C434.802 122.555 434.282 122.094 433.491 121.684C432.715 121.259 431.543 120.893 429.976 120.585C428.657 120.307 427.463 119.977 426.394 119.596C425.339 119.215 424.438 118.754 423.691 118.212C422.959 117.67 422.395 117.033 422 116.3C421.604 115.568 421.406 114.711 421.406 113.729C421.406 112.792 421.611 111.906 422.021 111.071C422.446 110.236 423.04 109.496 423.801 108.852C424.578 108.207 425.508 107.702 426.592 107.335C427.676 106.969 428.884 106.786 430.217 106.786C432.122 106.786 433.748 107.123 435.095 107.797C436.443 108.471 437.476 109.372 438.193 110.5C438.911 111.613 439.27 112.851 439.27 114.213H435.205C435.205 113.554 435.007 112.917 434.612 112.301C434.231 111.671 433.667 111.151 432.92 110.741C432.188 110.331 431.287 110.126 430.217 110.126C429.089 110.126 428.174 110.302 427.471 110.653C426.782 110.99 426.277 111.422 425.955 111.95C425.647 112.477 425.493 113.034 425.493 113.62C425.493 114.059 425.566 114.455 425.713 114.806C425.874 115.143 426.152 115.458 426.548 115.751C426.943 116.029 427.5 116.293 428.218 116.542C428.936 116.791 429.851 117.04 430.964 117.289C432.913 117.729 434.517 118.256 435.776 118.871C437.036 119.486 437.974 120.241 438.589 121.134C439.204 122.028 439.512 123.112 439.512 124.386C439.512 125.426 439.292 126.378 438.853 127.243C438.428 128.107 437.805 128.854 436.985 129.484C436.179 130.099 435.212 130.583 434.084 130.934C432.971 131.271 431.719 131.439 430.327 131.439C428.232 131.439 426.46 131.066 425.01 130.319C423.56 129.572 422.461 128.605 421.714 127.418C420.967 126.232 420.593 124.979 420.593 123.661H424.68C424.739 124.774 425.061 125.661 425.647 126.32C426.233 126.964 426.951 127.426 427.8 127.704C428.65 127.968 429.492 128.1 430.327 128.1C431.44 128.1 432.371 127.953 433.118 127.66C433.879 127.367 434.458 126.964 434.854 126.452C435.249 125.939 435.447 125.353 435.447 124.694ZM458.694 124.694C458.694 124.108 458.562 123.566 458.298 123.068C458.049 122.555 457.529 122.094 456.738 121.684C455.962 121.259 454.79 120.893 453.223 120.585C451.904 120.307 450.71 119.977 449.641 119.596C448.586 119.215 447.686 118.754 446.938 118.212C446.206 117.67 445.642 117.033 445.247 116.3C444.851 115.568 444.653 114.711 444.653 113.729C444.653 112.792 444.858 111.906 445.269 111.071C445.693 110.236 446.287 109.496 447.048 108.852C447.825 108.207 448.755 107.702 449.839 107.335C450.923 106.969 452.131 106.786 453.464 106.786C455.369 106.786 456.995 107.123 458.342 107.797C459.69 108.471 460.723 109.372 461.44 110.5C462.158 111.613 462.517 112.851 462.517 114.213H458.452C458.452 113.554 458.254 112.917 457.859 112.301C457.478 111.671 456.914 111.151 456.167 110.741C455.435 110.331 454.534 110.126 453.464 110.126C452.336 110.126 451.421 110.302 450.718 110.653C450.029 110.99 449.524 111.422 449.202 111.95C448.894 112.477 448.74 113.034 448.74 113.62C448.74 114.059 448.813 114.455 448.96 114.806C449.121 115.143 449.399 115.458 449.795 115.751C450.19 116.029 450.747 116.293 451.465 116.542C452.183 116.791 453.098 117.04 454.211 117.289C456.16 117.729 457.764 118.256 459.023 118.871C460.283 119.486 461.221 120.241 461.836 121.134C462.451 122.028 462.759 123.112 462.759 124.386C462.759 125.426 462.539 126.378 462.1 127.243C461.675 128.107 461.052 128.854 460.232 129.484C459.426 130.099 458.459 130.583 457.332 130.934C456.218 131.271 454.966 131.439 453.574 131.439C451.479 131.439 449.707 131.066 448.257 130.319C446.807 129.572 445.708 128.605 444.961 127.418C444.214 126.232 443.84 124.979 443.84 123.661H447.927C447.986 124.774 448.308 125.661 448.894 126.32C449.48 126.964 450.198 127.426 451.047 127.704C451.897 127.968 452.739 128.1 453.574 128.1C454.688 128.1 455.618 127.953 456.365 127.66C457.126 127.367 457.705 126.964 458.101 126.452C458.496 125.939 458.694 125.353 458.694 124.694Z" fill="#868686"/>
<path d="M463.683 89.5742L462.081 84.8496C464.964 83.8887 467.033 82.207 468.287 79.8047C469.542 77.429 470.169 74.4795 470.169 70.9561V62.748C470.169 59.8919 470.77 57.3962 471.971 55.2607C473.172 53.1253 475.027 51.4837 477.536 50.3359C475.027 49.2415 473.172 47.6266 471.971 45.4912C470.77 43.3558 470.169 40.8333 470.169 37.9238V29.6758C470.169 26.1523 469.542 23.1895 468.287 20.7871C467.033 18.3581 464.964 16.6764 462.081 15.7422L463.683 11.0576C468.861 12.5257 472.545 14.8613 474.733 18.0645C476.949 21.2409 478.057 25.1113 478.057 29.6758V37.9238C478.057 40.9401 478.737 43.2757 480.099 44.9307C481.46 46.5589 483.569 47.373 486.425 47.373V53.2588C483.569 53.2588 481.46 54.0996 480.099 55.7812C478.737 57.4362 478.057 59.7585 478.057 62.748V70.9561C478.057 75.4938 476.949 79.3643 474.733 82.5674C472.545 85.7705 468.861 88.1061 463.683 89.5742Z" fill="#F37726"/>
<path d="M329.429 69.564C325.687 69.564 322.876 68.1317 320.997 65.2671L320.513 69H315.948V31.2681L311.57 30.5161V27.1055H321.238V43.3799C322.151 42.0908 323.279 41.1061 324.622 40.4258C325.983 39.7454 327.567 39.4053 329.375 39.4053C331.775 39.4053 333.816 40.0588 335.499 41.3657C337.199 42.6548 338.497 44.472 339.393 46.8174C340.306 49.1628 340.762 51.8931 340.762 55.0083V55.5723C340.762 58.3652 340.306 60.8091 339.393 62.9038C338.497 64.9985 337.199 66.6367 335.499 67.8184C333.816 68.9821 331.792 69.564 329.429 69.564ZM328.086 65.2671C330.575 65.2671 332.419 64.3809 333.619 62.6084C334.836 60.8359 335.445 58.4906 335.445 55.5723V55.0083C335.445 51.6603 334.836 48.939 333.619 46.8442C332.401 44.7495 330.539 43.7021 328.033 43.7021C326.403 43.7021 325.025 44.096 323.897 44.8838C322.787 45.6715 321.901 46.7279 321.238 48.0527V60.8896C321.901 62.2324 322.796 63.2977 323.924 64.0854C325.07 64.8732 326.457 65.2671 328.086 65.2671ZM358.97 69.564C356.285 69.564 353.966 68.9373 352.015 67.6841C350.081 66.4129 348.586 64.6673 347.53 62.4473C346.473 60.2093 345.945 57.658 345.945 54.7935V54.2026C345.945 51.3381 346.473 48.7957 347.53 46.5757C348.586 44.3377 350.081 42.5832 352.015 41.312C353.966 40.0409 356.267 39.4053 358.917 39.4053C361.602 39.4053 363.912 40.0409 365.845 41.312C367.797 42.5832 369.301 44.3288 370.357 46.5488C371.413 48.7689 371.941 51.3201 371.941 54.2026V54.7935C371.941 57.6759 371.413 60.2362 370.357 62.4741C369.301 64.6942 367.806 66.4308 365.872 67.6841C363.938 68.9373 361.638 69.564 358.97 69.564ZM358.97 65.4282C361.477 65.4282 363.383 64.4256 364.69 62.4204C365.997 60.4152 366.651 57.8729 366.651 54.7935V54.2026C366.651 52.1616 366.355 50.3444 365.765 48.751C365.192 47.1396 364.332 45.8774 363.187 44.9644C362.041 44.0334 360.617 43.5679 358.917 43.5679C357.234 43.5679 355.819 44.0334 354.673 44.9644C353.528 45.8774 352.668 47.1396 352.095 48.751C351.522 50.3444 351.236 52.1616 351.236 54.2026V54.7935C351.236 57.8729 351.88 60.4152 353.169 62.4204C354.476 64.4256 356.41 65.4282 358.97 65.4282ZM390.123 69.564C387.437 69.564 385.118 68.9373 383.167 67.6841C381.233 66.4129 379.738 64.6673 378.682 62.4473C377.626 60.2093 377.098 57.658 377.098 54.7935V54.2026C377.098 51.3381 377.626 48.7957 378.682 46.5757C379.738 44.3377 381.233 42.5832 383.167 41.312C385.118 40.0409 387.419 39.4053 390.069 39.4053C392.754 39.4053 395.064 40.0409 396.998 41.312C398.949 42.5832 400.453 44.3288 401.509 46.5488C402.566 48.7689 403.094 51.3201 403.094 54.2026V54.7935C403.094 57.6759 402.566 60.2362 401.509 62.4741C400.453 64.6942 398.958 66.4308 397.024 67.6841C395.091 68.9373 392.79 69.564 390.123 69.564ZM390.123 65.4282C392.629 65.4282 394.536 64.4256 395.843 62.4204C397.15 60.4152 397.803 57.8729 397.803 54.7935V54.2026C397.803 52.1616 397.508 50.3444 396.917 48.751C396.344 47.1396 395.485 45.8774 394.339 44.9644C393.193 44.0334 391.77 43.5679 390.069 43.5679C388.386 43.5679 386.972 44.0334 385.826 44.9644C384.68 45.8774 383.82 47.1396 383.248 48.751C382.675 50.3444 382.388 52.1616 382.388 54.2026V54.7935C382.388 57.8729 383.033 60.4152 384.322 62.4204C385.629 64.4256 387.562 65.4282 390.123 65.4282ZM406.37 69V65.6162L410.748 64.8643V31.2681L406.37 30.5161V27.1055H416.038V54.0952L426.324 43.8633L426.458 43.7021L423.343 43.353V39.9424H435.857V43.353L432.125 44.0513L423.96 52.269L433.978 64.9717L438.167 65.6162V69H425.035V65.6162L427.989 65.2671L427.908 65.1597L420.55 55.6797L416.038 60.2183V64.8643L420.416 65.6162V69H406.37ZM452.991 69.564C451.04 69.564 449.214 69.367 447.513 68.9731C445.812 68.5793 444.004 67.9705 442.088 67.147L442.034 60.2451H446.036L447.029 64.4077C448.927 65.1955 450.914 65.5894 452.991 65.5894C455.14 65.5894 456.679 65.1776 457.61 64.354C458.541 63.5304 459.007 62.5099 459.007 61.2925C459.007 60.1466 458.532 59.1799 457.583 58.3921C456.653 57.5864 454.952 56.9061 452.481 56.3511C448.972 55.5454 446.385 54.4712 444.72 53.1284C443.073 51.7677 442.249 49.9595 442.249 47.7036C442.249 46.1281 442.706 44.7227 443.619 43.4873C444.532 42.234 445.803 41.2404 447.432 40.5063C449.061 39.7723 450.959 39.4053 453.125 39.4053C455.328 39.4053 457.208 39.6559 458.765 40.1572C460.341 40.6585 461.71 41.3299 462.874 42.1714L463.143 48.8047H459.168L458.309 44.9375C457.682 44.472 456.939 44.1139 456.08 43.8633C455.22 43.6126 454.236 43.4873 453.125 43.4873C451.478 43.4873 450.136 43.8722 449.097 44.6421C448.077 45.4119 447.566 46.3787 447.566 47.5425C447.566 48.2228 447.71 48.8136 447.996 49.3149C448.3 49.8162 448.873 50.2728 449.715 50.6846C450.556 51.0785 451.792 51.4723 453.421 51.8662C457.467 52.8151 460.287 54.0236 461.88 55.4917C463.492 56.9598 464.297 58.7681 464.297 60.9165C464.297 63.3693 463.384 65.4282 461.558 67.0933C459.75 68.7404 456.894 69.564 452.991 69.564Z" fill="#616161"/>
<path d="M312.265 89.5742C307.06 88.1061 303.349 85.7705 301.134 82.5674C298.945 79.3643 297.851 75.4938 297.851 70.9561V62.748C297.851 59.7585 297.17 57.4362 295.809 55.7812C294.447 54.0996 292.352 53.2588 289.522 53.2588V47.373C292.352 47.373 294.447 46.5589 295.809 44.9307C297.17 43.2757 297.851 40.9401 297.851 37.9238V29.6758C297.851 25.1113 298.945 21.2409 301.134 18.0645C303.349 14.8613 307.06 12.5257 312.265 11.0576L313.866 15.7422C310.93 16.6764 308.835 18.3581 307.58 20.7871C306.352 23.1895 305.738 26.1523 305.738 29.6758V37.9238C305.738 40.7266 305.178 43.1956 304.057 45.3311C302.936 47.4665 301.241 49.1348 298.972 50.3359C301.241 51.5638 302.936 53.2588 304.057 55.4209C305.178 57.5563 305.738 59.9987 305.738 62.748V70.9561C305.738 74.4795 306.352 77.429 307.58 79.8047C308.835 82.207 310.93 83.8887 313.866 84.8496L312.265 89.5742Z" fill="#F37726"/>
<path d="M21.2271 68.564C18.5415 68.564 16.2051 67.9552 14.2178 66.7378C12.2305 65.5024 10.6908 63.7926 9.59863 61.6084C8.52441 59.4242 7.9873 56.8997 7.9873 54.0352V52.8535C7.9873 50.0964 8.55127 47.6346 9.6792 45.4683C10.825 43.284 12.3379 41.5653 14.2178 40.312C16.1156 39.0409 18.1834 38.4053 20.4214 38.4053C23.0353 38.4053 25.2196 38.9424 26.9741 40.0166C28.7466 41.0908 30.0804 42.6037 30.9756 44.5552C31.8708 46.4888 32.3184 48.7715 32.3184 51.4033V54.7065H13.4658L13.3853 54.8408C13.4211 56.7028 13.7433 58.3589 14.3521 59.8091C14.9787 61.2414 15.8739 62.3693 17.0376 63.1929C18.2013 64.0164 19.5978 64.4282 21.2271 64.4282C23.0174 64.4282 24.584 64.1776 25.9268 63.6763C27.2874 63.1571 28.4601 62.4499 29.4448 61.5547L31.5127 64.9922C30.4743 65.9948 29.0957 66.8452 27.377 67.5435C25.6761 68.2238 23.6261 68.564 21.2271 68.564ZM13.627 50.5708H27.0278V49.8726C27.0278 48.4761 26.7772 47.2318 26.2759 46.1396C25.7925 45.0296 25.0584 44.1613 24.0737 43.5347C23.1069 42.8901 21.8895 42.5679 20.4214 42.5679C19.2397 42.5679 18.1655 42.917 17.1987 43.6152C16.2319 44.2956 15.4352 45.2266 14.8086 46.4082C14.182 47.5898 13.7702 48.9326 13.5732 50.4365L13.627 50.5708ZM35.5947 68V64.6162L38.8174 63.9985L47.4917 53.3101L39.0054 42.9707L36.1318 42.353V38.9424H47.5186V42.353L44.6182 42.6753L50.5801 50.0874L56.3809 42.6484L53.2656 42.353V38.9424H64.4644V42.353L61.5103 42.9707L53.6416 53.2295L62.6919 63.9985L65.6997 64.6162V68H53.373V64.6162L56.8643 64.3208L50.4995 56.5596L44.3228 64.3208L47.4648 64.6162V68H35.5947ZM81.4907 68.564C78.8052 68.564 76.4688 67.9552 74.4814 66.7378C72.4941 65.5024 70.9544 63.7926 69.8623 61.6084C68.7881 59.4242 68.251 56.8997 68.251 54.0352V52.8535C68.251 50.0964 68.8149 47.6346 69.9429 45.4683C71.0887 43.284 72.6016 41.5653 74.4814 40.312C76.3792 39.0409 78.4471 38.4053 80.6851 38.4053C83.299 38.4053 85.4832 38.9424 87.2378 40.0166C89.0103 41.0908 90.3441 42.6037 91.2393 44.5552C92.1344 46.4888 92.582 48.7715 92.582 51.4033V54.7065H73.7295L73.6489 54.8408C73.6847 56.7028 74.007 58.3589 74.6157 59.8091C75.2424 61.2414 76.1375 62.3693 77.3013 63.1929C78.465 64.0164 79.8615 64.4282 81.4907 64.4282C83.2811 64.4282 84.8477 64.1776 86.1904 63.6763C87.5511 63.1571 88.7238 62.4499 89.7085 61.5547L91.7764 64.9922C90.738 65.9948 89.3594 66.8452 87.6406 67.5435C85.9398 68.2238 83.8898 68.564 81.4907 68.564ZM73.8906 50.5708H87.2915V49.8726C87.2915 48.4761 87.0409 47.2318 86.5396 46.1396C86.0562 45.0296 85.3221 44.1613 84.3374 43.5347C83.3706 42.8901 82.1532 42.5679 80.6851 42.5679C79.5034 42.5679 78.4292 42.917 77.4624 43.6152C76.4956 44.2956 75.6989 45.2266 75.0723 46.4082C74.4456 47.5898 74.0339 48.9326 73.8369 50.4365L73.8906 50.5708ZM110.924 68.564C108.292 68.564 106.001 67.9552 104.049 66.7378C102.098 65.5024 100.585 63.7926 99.5107 61.6084C98.4365 59.4242 97.8994 56.8997 97.8994 54.0352V52.9072C97.8994 50.1501 98.4186 47.6794 99.457 45.4951C100.495 43.3109 101.99 41.5832 103.942 40.312C105.893 39.0409 108.221 38.4053 110.924 38.4053C113.27 38.4053 115.32 38.7902 117.074 39.5601C118.847 40.3299 120.333 41.3862 121.532 42.729L121.667 49.7114H117.531L116.618 44.6357C116.009 44.0091 115.248 43.5078 114.335 43.1318C113.422 42.7559 112.348 42.5679 111.112 42.5679C109.537 42.5679 108.149 43.0334 106.95 43.9644C105.768 44.8953 104.846 46.1396 104.184 47.6973C103.521 49.2549 103.19 50.9915 103.19 52.9072V54.0352C103.19 56.1478 103.494 57.9829 104.103 59.5405C104.73 61.0981 105.616 62.3066 106.762 63.166C107.925 64.0075 109.304 64.4282 110.897 64.4282C112.688 64.4282 114.174 63.9359 115.355 62.9512C116.537 61.9665 117.262 60.6147 117.531 58.896H122.284L122.338 59.0571C122.248 60.7222 121.756 62.2798 120.861 63.73C119.966 65.1802 118.686 66.3529 117.021 67.248C115.373 68.1253 113.341 68.564 110.924 68.564ZM139.257 68.564C136.106 68.564 133.644 67.5524 131.872 65.5293C130.099 63.5062 129.213 60.3551 129.213 56.0762V43.105L125.883 42.353V38.9424H129.213H134.503V56.1299C134.503 59.2272 134.96 61.3577 135.873 62.5215C136.786 63.6852 138.209 64.2671 140.143 64.2671C142.023 64.2671 143.572 63.8911 144.789 63.1392C146.024 62.3693 146.955 61.2861 147.582 59.8896V43.105L143.688 42.353V38.9424H147.582H152.873V63.8643L156.203 64.6162V68H148.119L147.77 63.7031C146.857 65.2607 145.675 66.4603 144.225 67.3018C142.793 68.1432 141.137 68.564 139.257 68.564ZM170.194 68.4565C168.046 68.4565 166.336 67.8299 165.065 66.5767C163.812 65.3055 163.185 63.2824 163.185 60.5073V42.8633H158.593V38.9424H163.185V31.9331H168.476V38.9424H174.787V42.8633H168.476V60.5073C168.476 61.9038 168.753 62.9333 169.308 63.5957C169.863 64.2581 170.606 64.5894 171.537 64.5894C172.164 64.5894 172.862 64.5356 173.632 64.4282C174.402 64.3029 175.001 64.1955 175.431 64.106L176.156 67.5703C175.386 67.8031 174.438 68.009 173.31 68.188C172.2 68.367 171.161 68.4565 170.194 68.4565ZM188.939 68.564C185.914 68.564 183.613 67.8299 182.038 66.3618C180.462 64.8758 179.674 62.79 179.674 60.1045C179.674 58.2604 180.176 56.658 181.178 55.2974C182.199 53.9188 183.667 52.8535 185.583 52.1016C187.498 51.3317 189.79 50.9468 192.458 50.9468H197.641V48.1001C197.641 46.3455 197.104 44.9849 196.029 44.0181C194.973 43.0513 193.478 42.5679 191.544 42.5679C190.327 42.5679 189.271 42.7201 188.375 43.0244C187.48 43.3109 186.666 43.7137 185.932 44.2329L185.368 48.2881H181.286V41.6279C182.593 40.5716 184.114 39.7749 185.851 39.2378C187.588 38.6828 189.512 38.4053 191.625 38.4053C195.152 38.4053 197.918 39.2467 199.923 40.9297C201.929 42.6126 202.931 45.0207 202.931 48.1538V62.1455C202.931 62.5215 202.931 62.8885 202.931 63.2466C202.949 63.6047 202.976 63.9627 203.012 64.3208L205.832 64.6162V68H198.231C198.07 67.2122 197.945 66.505 197.855 65.8784C197.766 65.2518 197.703 64.6252 197.667 63.9985C196.647 65.3055 195.367 66.3976 193.827 67.2749C192.305 68.1343 190.676 68.564 188.939 68.564ZM189.718 64.1328C191.473 64.1328 193.075 63.7121 194.525 62.8706C195.976 62.0291 197.014 61.0176 197.641 59.8359V54.5723H192.27C189.835 54.5723 188.008 55.1541 186.791 56.3179C185.574 57.4816 184.965 58.7796 184.965 60.2119C184.965 61.4831 185.359 62.4588 186.146 63.1392C186.934 63.8016 188.125 64.1328 189.718 64.1328ZM225.382 68.564C223.485 68.564 221.837 68.2059 220.441 67.4897C219.044 66.7557 217.881 65.6815 216.95 64.2671L216.466 68H211.901V30.2681L207.523 29.5161V26.1055H217.191V42.3799C218.104 41.0908 219.232 40.1061 220.575 39.4258C221.936 38.7454 223.52 38.4053 225.329 38.4053C227.728 38.4053 229.769 39.0588 231.452 40.3657C233.153 41.6548 234.451 43.472 235.346 45.8174C236.259 48.1628 236.715 50.8931 236.715 54.0083V54.5723C236.715 57.3652 236.259 59.8091 235.346 61.9038C234.451 63.9985 233.153 65.6367 231.452 66.8184C229.769 67.9821 227.746 68.564 225.382 68.564ZM224.04 64.2671C226.528 64.2671 228.372 63.3809 229.572 61.6084C230.789 59.8359 231.398 57.4906 231.398 54.5723V54.0083C231.398 51.7703 231.129 49.8099 230.592 48.127C230.055 46.4261 229.241 45.1012 228.148 44.1523C227.056 43.1855 225.669 42.7021 223.986 42.7021C222.357 42.7021 220.978 43.096 219.85 43.8838C218.74 44.6715 217.854 45.7279 217.191 47.0527V59.8896C217.854 61.2324 218.749 62.2977 219.877 63.0854C221.023 63.8732 222.41 64.2671 224.04 64.2671ZM240.18 68V64.6162L244.557 63.8643V30.2681L240.18 29.5161V26.1055H249.848V63.8643L254.225 64.6162V68H240.18ZM270.714 68.564C268.029 68.564 265.692 67.9552 263.705 66.7378C261.718 65.5024 260.178 63.7926 259.086 61.6084C258.012 59.4242 257.475 56.8997 257.475 54.0352V52.8535C257.475 50.0964 258.039 47.6346 259.167 45.4683C260.312 43.284 261.825 41.5653 263.705 40.312C265.603 39.0409 267.671 38.4053 269.909 38.4053C272.523 38.4053 274.707 38.9424 276.461 40.0166C278.234 41.0908 279.568 42.6037 280.463 44.5552C281.358 46.4888 281.806 48.7715 281.806 51.4033V54.7065H262.953L262.873 54.8408C262.908 56.7028 263.231 58.3589 263.839 59.8091C264.466 61.2414 265.361 62.3693 266.525 63.1929C267.689 64.0164 269.085 64.4282 270.714 64.4282C272.505 64.4282 274.071 64.1776 275.414 63.6763C276.775 63.1571 277.947 62.4499 278.932 61.5547L281 64.9922C279.962 65.9948 278.583 66.8452 276.864 67.5435C275.163 68.2238 273.113 68.564 270.714 68.564ZM263.114 50.5708H276.515V49.8726C276.515 48.4761 276.264 47.2318 275.763 46.1396C275.28 45.0296 274.546 44.1613 273.561 43.5347C272.594 42.8901 271.377 42.5679 269.909 42.5679C268.727 42.5679 267.653 42.917 266.686 43.6152C265.719 44.2956 264.923 45.2266 264.296 46.4082C263.669 47.5898 263.257 48.9326 263.061 50.4365L263.114 50.5708Z" fill="#616161"/>
<path d="M21.2271 68.564C18.5415 68.564 16.2051 67.9552 14.2178 66.7378C12.2305 65.5024 10.6908 63.7926 9.59863 61.6084C8.52441 59.4242 7.9873 56.8997 7.9873 54.0352V52.8535C7.9873 50.0964 8.55127 47.6346 9.6792 45.4683C10.825 43.284 12.3379 41.5653 14.2178 40.312C16.1156 39.0409 18.1834 38.4053 20.4214 38.4053C23.0353 38.4053 25.2196 38.9424 26.9741 40.0166C28.7466 41.0908 30.0804 42.6037 30.9756 44.5552C31.8708 46.4888 32.3184 48.7715 32.3184 51.4033V54.7065H13.4658L13.3853 54.8408C13.4211 56.7028 13.7433 58.3589 14.3521 59.8091C14.9787 61.2414 15.8739 62.3693 17.0376 63.1929C18.2013 64.0164 19.5978 64.4282 21.2271 64.4282C23.0174 64.4282 24.584 64.1776 25.9268 63.6763C27.2874 63.1571 28.4601 62.4499 29.4448 61.5547L31.5127 64.9922C30.4743 65.9948 29.0957 66.8452 27.377 67.5435C25.6761 68.2238 23.6261 68.564 21.2271 68.564ZM13.627 50.5708H27.0278V49.8726C27.0278 48.4761 26.7772 47.2318 26.2759 46.1396C25.7925 45.0296 25.0584 44.1613 24.0737 43.5347C23.1069 42.8901 21.8895 42.5679 20.4214 42.5679C19.2397 42.5679 18.1655 42.917 17.1987 43.6152C16.2319 44.2956 15.4352 45.2266 14.8086 46.4082C14.182 47.5898 13.7702 48.9326 13.5732 50.4365L13.627 50.5708ZM35.5947 68V64.6162L38.8174 63.9985L47.4917 53.3101L39.0054 42.9707L36.1318 42.353V38.9424H47.5186V42.353L44.6182 42.6753L50.5801 50.0874L56.3809 42.6484L53.2656 42.353V38.9424H64.4644V42.353L61.5103 42.9707L53.6416 53.2295L62.6919 63.9985L65.6997 64.6162V68H53.373V64.6162L56.8643 64.3208L50.4995 56.5596L44.3228 64.3208L47.4648 64.6162V68H35.5947ZM81.4907 68.564C78.8052 68.564 76.4688 67.9552 74.4814 66.7378C72.4941 65.5024 70.9544 63.7926 69.8623 61.6084C68.7881 59.4242 68.251 56.8997 68.251 54.0352V52.8535C68.251 50.0964 68.8149 47.6346 69.9429 45.4683C71.0887 43.284 72.6016 41.5653 74.4814 40.312C76.3792 39.0409 78.4471 38.4053 80.6851 38.4053C83.299 38.4053 85.4832 38.9424 87.2378 40.0166C89.0103 41.0908 90.3441 42.6037 91.2393 44.5552C92.1344 46.4888 92.582 48.7715 92.582 51.4033V54.7065H73.7295L73.6489 54.8408C73.6847 56.7028 74.007 58.3589 74.6157 59.8091C75.2424 61.2414 76.1375 62.3693 77.3013 63.1929C78.465 64.0164 79.8615 64.4282 81.4907 64.4282C83.2811 64.4282 84.8477 64.1776 86.1904 63.6763C87.5511 63.1571 88.7238 62.4499 89.7085 61.5547L91.7764 64.9922C90.738 65.9948 89.3594 66.8452 87.6406 67.5435C85.9398 68.2238 83.8898 68.564 81.4907 68.564ZM73.8906 50.5708H87.2915V49.8726C87.2915 48.4761 87.0409 47.2318 86.5396 46.1396C86.0562 45.0296 85.3221 44.1613 84.3374 43.5347C83.3706 42.8901 82.1532 42.5679 80.6851 42.5679C79.5034 42.5679 78.4292 42.917 77.4624 43.6152C76.4956 44.2956 75.6989 45.2266 75.0723 46.4082C74.4456 47.5898 74.0339 48.9326 73.8369 50.4365L73.8906 50.5708ZM110.924 68.564C108.292 68.564 106.001 67.9552 104.049 66.7378C102.098 65.5024 100.585 63.7926 99.5107 61.6084C98.4365 59.4242 97.8994 56.8997 97.8994 54.0352V52.9072C97.8994 50.1501 98.4186 47.6794 99.457 45.4951C100.495 43.3109 101.99 41.5832 103.942 40.312C105.893 39.0409 108.221 38.4053 110.924 38.4053C113.27 38.4053 115.32 38.7902 117.074 39.5601C118.847 40.3299 120.333 41.3862 121.532 42.729L121.667 49.7114H117.531L116.618 44.6357C116.009 44.0091 115.248 43.5078 114.335 43.1318C113.422 42.7559 112.348 42.5679 111.112 42.5679C109.537 42.5679 108.149 43.0334 106.95 43.9644C105.768 44.8953 104.846 46.1396 104.184 47.6973C103.521 49.2549 103.19 50.9915 103.19 52.9072V54.0352C103.19 56.1478 103.494 57.9829 104.103 59.5405C104.73 61.0981 105.616 62.3066 106.762 63.166C107.925 64.0075 109.304 64.4282 110.897 64.4282C112.688 64.4282 114.174 63.9359 115.355 62.9512C116.537 61.9665 117.262 60.6147 117.531 58.896H122.284L122.338 59.0571C122.248 60.7222 121.756 62.2798 120.861 63.73C119.966 65.1802 118.686 66.3529 117.021 67.248C115.373 68.1253 113.341 68.564 110.924 68.564ZM139.257 68.564C136.106 68.564 133.644 67.5524 131.872 65.5293C130.099 63.5062 129.213 60.3551 129.213 56.0762V43.105L125.883 42.353V38.9424H129.213H134.503V56.1299C134.503 59.2272 134.96 61.3577 135.873 62.5215C136.786 63.6852 138.209 64.2671 140.143 64.2671C142.023 64.2671 143.572 63.8911 144.789 63.1392C146.024 62.3693 146.955 61.2861 147.582 59.8896V43.105L143.688 42.353V38.9424H147.582H152.873V63.8643L156.203 64.6162V68H148.119L147.77 63.7031C146.857 65.2607 145.675 66.4603 144.225 67.3018C142.793 68.1432 141.137 68.564 139.257 68.564ZM170.194 68.4565C168.046 68.4565 166.336 67.8299 165.065 66.5767C163.812 65.3055 163.185 63.2824 163.185 60.5073V42.8633H158.593V38.9424H163.185V31.9331H168.476V38.9424H174.787V42.8633H168.476V60.5073C168.476 61.9038 168.753 62.9333 169.308 63.5957C169.863 64.2581 170.606 64.5894 171.537 64.5894C172.164 64.5894 172.862 64.5356 173.632 64.4282C174.402 64.3029 175.001 64.1955 175.431 64.106L176.156 67.5703C175.386 67.8031 174.438 68.009 173.31 68.188C172.2 68.367 171.161 68.4565 170.194 68.4565ZM188.939 68.564C185.914 68.564 183.613 67.8299 182.038 66.3618C180.462 64.8758 179.674 62.79 179.674 60.1045C179.674 58.2604 180.176 56.658 181.178 55.2974C182.199 53.9188 183.667 52.8535 185.583 52.1016C187.498 51.3317 189.79 50.9468 192.458 50.9468H197.641V48.1001C197.641 46.3455 197.104 44.9849 196.029 44.0181C194.973 43.0513 193.478 42.5679 191.544 42.5679C190.327 42.5679 189.271 42.7201 188.375 43.0244C187.48 43.3109 186.666 43.7137 185.932 44.2329L185.368 48.2881H181.286V41.6279C182.593 40.5716 184.114 39.7749 185.851 39.2378C187.588 38.6828 189.512 38.4053 191.625 38.4053C195.152 38.4053 197.918 39.2467 199.923 40.9297C201.929 42.6126 202.931 45.0207 202.931 48.1538V62.1455C202.931 62.5215 202.931 62.8885 202.931 63.2466C202.949 63.6047 202.976 63.9627 203.012 64.3208L205.832 64.6162V68H198.231C198.07 67.2122 197.945 66.505 197.855 65.8784C197.766 65.2518 197.703 64.6252 197.667 63.9985C196.647 65.3055 195.367 66.3976 193.827 67.2749C192.305 68.1343 190.676 68.564 188.939 68.564ZM189.718 64.1328C191.473 64.1328 193.075 63.7121 194.525 62.8706C195.976 62.0291 197.014 61.0176 197.641 59.8359V54.5723H192.27C189.835 54.5723 188.008 55.1541 186.791 56.3179C185.574 57.4816 184.965 58.7796 184.965 60.2119C184.965 61.4831 185.359 62.4588 186.146 63.1392C186.934 63.8016 188.125 64.1328 189.718 64.1328ZM225.382 68.564C223.485 68.564 221.837 68.2059 220.441 67.4897C219.044 66.7557 217.881 65.6815 216.95 64.2671L216.466 68H211.901V30.2681L207.523 29.5161V26.1055H217.191V42.3799C218.104 41.0908 219.232 40.1061 220.575 39.4258C221.936 38.7454 223.52 38.4053 225.329 38.4053C227.728 38.4053 229.769 39.0588 231.452 40.3657C233.153 41.6548 234.451 43.472 235.346 45.8174C236.259 48.1628 236.715 50.8931 236.715 54.0083V54.5723C236.715 57.3652 236.259 59.8091 235.346 61.9038C234.451 63.9985 233.153 65.6367 231.452 66.8184C229.769 67.9821 227.746 68.564 225.382 68.564ZM224.04 64.2671C226.528 64.2671 228.372 63.3809 229.572 61.6084C230.789 59.8359 231.398 57.4906 231.398 54.5723V54.0083C231.398 51.7703 231.129 49.8099 230.592 48.127C230.055 46.4261 229.241 45.1012 228.148 44.1523C227.056 43.1855 225.669 42.7021 223.986 42.7021C222.357 42.7021 220.978 43.096 219.85 43.8838C218.74 44.6715 217.854 45.7279 217.191 47.0527V59.8896C217.854 61.2324 218.749 62.2977 219.877 63.0854C221.023 63.8732 222.41 64.2671 224.04 64.2671ZM240.18 68V64.6162L244.557 63.8643V30.2681L240.18 29.5161V26.1055H249.848V63.8643L254.225 64.6162V68H240.18ZM270.714 68.564C268.029 68.564 265.692 67.9552 263.705 66.7378C261.718 65.5024 260.178 63.7926 259.086 61.6084C258.012 59.4242 257.475 56.8997 257.475 54.0352V52.8535C257.475 50.0964 258.039 47.6346 259.167 45.4683C260.312 43.284 261.825 41.5653 263.705 40.312C265.603 39.0409 267.671 38.4053 269.909 38.4053C272.523 38.4053 274.707 38.9424 276.461 40.0166C278.234 41.0908 279.568 42.6037 280.463 44.5552C281.358 46.4888 281.806 48.7715 281.806 51.4033V54.7065H262.953L262.873 54.8408C262.908 56.7028 263.231 58.3589 263.839 59.8091C264.466 61.2414 265.361 62.3693 266.525 63.1929C267.689 64.0164 269.085 64.4282 270.714 64.4282C272.505 64.4282 274.071 64.1776 275.414 63.6763C276.775 63.1571 277.947 62.4499 278.932 61.5547L281 64.9922C279.962 65.9948 278.583 66.8452 276.864 67.5435C275.163 68.2238 273.113 68.564 270.714 68.564ZM263.114 50.5708H276.515V49.8726C276.515 48.4761 276.264 47.2318 275.763 46.1396C275.28 45.0296 274.546 44.1613 273.561 43.5347C272.594 42.8901 271.377 42.5679 269.909 42.5679C268.727 42.5679 267.653 42.917 266.686 43.6152C265.719 44.2956 264.923 45.2266 264.296 46.4082C263.669 47.5898 263.257 48.9326 263.061 50.4365L263.114 50.5708Z" fill="#616161"/>
</svg>
